:SAMPLES-PER-SECOND 30
:FULLY-SPECIFIED
:DEGREES
1
root  71.9839 39.5303 -1.21994 -158.909 -81.4067 156.68
RightUpLeg  1.64987 -8.62608 -4.30035
RightLeg  7.06113 -0.243034 0.070401
RightFoot  -6.65132 -0.000536066 -1.08924
RightToes  -1.33073e-015 0 -3.6325e-017
Spine  3.05435 1.31809 5.67806
Spine1  3.78606 2.7009 -5.44907
HEad  -12.5309 -6.89556 -0.996567
LeftShoulder1  -0.648052 5.19039 -32.2701
LeftArm  0.821039 10.2754 -41.6642
LeftForeArm  26.2133 -15.8243 -6.2054
LeftHand  -0.0486301 6.84885 -0.873701
RightShoulder  -0.931804 -5.97132 31.1585
RightArm  21.0716 3.97715 47.1298
RightForeArm  18.1577 8.98479 9.0861
RightHand  -0.105413 4.66569 -1.50762
LeftUpLeg  -1.22158 4.54721 -0.484377
LeftLeg  1.18513 0.587172 -0.227077
LeftFoot  1.60811 -0.113323 0.939647
LeftToes  -1.63346e-009 7.54925e-011 9.86887e-012
2
root  71.9827 39.517 -1.23306 -158.527 -81.3772 156.259
RightUpLeg  1.50264 -8.66998 -4.37126
RightLeg  7.46314 -0.167246 0.083592
RightFoot  -6.86951 0.00201635 -1.24239
RightToes  -1.33073e-015 0 -3.6325e-017
Spine  3.08603 1.34331 5.47643
Spine1  3.95448 2.68868 -5.22583
HEad  -15.3983 -4.87713 -2.23998
LeftShoulder1  -0.669974 5.24487 -32.3298
LeftArm  0.673071 10.0737 -41.8197
LeftForeArm  26.3297 -15.7382 -6.23249
LeftHand  -0.0502724 7.40386 -0.499885
RightShoulder  -0.873189 -5.82827 30.946
RightArm  20.7896 3.89747 47.2919
RightForeArm  18.3319 8.99947 9.01402
RightHand  -0.114667 4.42855 -1.64281
LeftUpLeg  -1.30079 4.41412 -0.590615
LeftLeg  1.4235 0.739236 -0.114007
LeftFoot  1.50395 -0.111673 0.90857
LeftToes  -1.63346e-009 7.54925e-011 9.86887e-012
3
root  71.9737 39.5097 -1.25649 -158.182 -81.3514 155.895
RightUpLeg  1.39279 -8.63081 -4.37598
RightLeg  7.76517 -0.224953 0.028522
RightFoot  -7.05284 -0.000507191 -1.26348
RightToes  -1.33073e-015 0 -3.6325e-017
Spine  2.80308 1.39949 5.33054
Spine1  4.59417 2.7389 -5.1014
HEad  -15.1953 -4.86052 -2.22743
LeftShoulder1  -0.695505 5.32722 -31.9873
LeftArm  0.26602 9.66304 -42.3312
LeftForeArm  26.6237 -15.4795 -6.30905
LeftHand  -0.0508531 7.56364 -0.579984
RightShoulder  -0.88577 -5.85959 30.9845
RightArm  20.6531 4.45298 47.3963
RightForeArm  18.0971 8.46095 9.20518
RightHand  -0.176436 4.28049 -2.39722
LeftUpLeg  -1.30721 4.48856 -0.578999
LeftLeg  1.52268 0.640759 -0.19337
LeftFoot  1.41586 -0.109205 0.900002
LeftToes  -1.63346e-009 7.54925e-011 9.86887e-012
4
root  71.9404 39.4989 -1.28894 -157.145 -81.5826 154.754
RightUpLeg  1.49989 -8.62891 -4.40047
RightLeg  7.96102 -0.551683 -0.0231102
RightFoot  -7.25648 0.000700048 -1.3971
RightToes  -1.33073e-015 0 -3.6325e-017
Spine  2.5079 1.35848 5.09839
Spine1  5.18167 2.66741 -4.91099
HEad  -14.9222 -4.61061 -2.32349
LeftShoulder1  -0.684516 5.30247 -31.9006
LeftArm  0.537735 9.31404 -42.5627
LeftForeArm  26.2309 -15.3566 -6.4469
LeftHand  -0.0312241 8.86833 0.577685
RightShoulder  -0.931787 -5.97899 31.044
RightArm  20.5385 4.63543 47.3511
RightForeArm  18.4117 8.42134 9.17571
RightHand  -0.158101 4.35788 -2.18718
LeftUpLeg  -1.23282 4.50233 -0.600685
LeftLeg  1.66581 0.348209 -0.193059
LeftFoot  1.26467 -0.0923182 0.766839
LeftToes  -1.63346e-009 7.54925e-011 9.86887e-012
5
root  71.8962 39.503 -1.32362 -156.136 -81.7422 153.723
RightUpLeg  1.68955 -8.72978 -4.50723
RightLeg  7.89392 -0.545475 0.0428441
RightFoot  -7.39764 -0.00279928 -1.37279
RightToes  -1.33073e-015 0 -3.6325e-017
Spine  2.30542 1.35294 5.34738
Spine1  5.33901 2.75442 -5.30602
HEad  -14.508 -5.33153 -2.33589
LeftShoulder1  -0.62576 5.15132 -31.8321
LeftArm  0.263513 9.09438 -42.4671
LeftForeArm  26.4833 -14.8674 -6.66343
LeftHand  -0.0157395 8.97074 1.02269
RightShoulder  -0.983349 -6.09436 31.3766
RightArm  20.6879 4.3711 47.0549
RightForeArm  18.2376 8.77954 9.07934
RightHand  -0.182741 3.03769 -2.73595
LeftUpLeg  -1.1264 4.51236 -0.629544
LeftLeg  1.59865 0.296344 -0.21195
LeftFoot  1.29377 -0.0959015 0.796015
LeftToes  -1.63346e-009 7.54925e-011 9.86887e-012
6
root  71.8287 39.4982 -1.36391 -155.387 -81.7107 153.013
RightUpLeg  1.77941 -8.84389 -4.63884
RightLeg  7.89147 -0.357848 0.111175
RightFoot  -7.63181 -0.00744603 -1.36789
RightToes  -1.33073e-015 0 -3.6325e-017
Spine  2.34394 1.24894 5.51581
Spine1  5.00588 2.7061 -5.62341
HEad  -14.1997 -4.99877 -2.21197
LeftShoulder1  -0.647463 5.20337 -31.9439
LeftArm  0.587631 9.43598 -41.9929
LeftForeArm  25.9381 -15.1082 -6.58554
LeftHand  -0.0350224 8.82579 0.422052
RightShoulder  -0.955761 -6.01167 31.5116
RightArm  20.8821 4.13278 46.9981
RightForeArm  18.5742 8.75467 9.12742
RightHand  -0.152184 3.36906 -2.26219
LeftUpLeg  -0.995336 4.46963 -0.688296
LeftLeg  1.47917 0.490299 -0.205357
LeftFoot  1.15019 -0.0819535 0.683411
LeftToes  -1.63346e-009 7.54925e-011 9.86887e-012
7
root  71.7642 39.4863 -1.41079 -155.57 -81.5331 153.117
RightUpLeg  1.86694 -8.90772 -4.723
RightLeg  8.15076 0.0570684 0.190537
RightFoot  -7.99214 -0.00896424 -1.54253
RightToes  -1.33073e-015 0 -3.6325e-017
Spine  2.55456 1.35243 5.37262
Spine1  4.81897 2.77444 -5.43544
HEad  -14.0882 -5.08267 -2.2668
LeftShoulder1  -0.70537 5.36041 -31.8341
LeftArm  0.452853 9.74266 -42.185
LeftForeArm  26.1274 -15.3634 -6.42324
LeftHand  -0.0340856 8.71978 0.453499
RightShoulder  -0.963291 -6.03661 31.4347
RightArm  21.0816 3.94663 46.9739
RightForeArm  18.5939 8.84905 9.13496
RightHand  -0.118748 3.6026 -1.78209
LeftUpLeg  -0.865077 4.43924 -0.6863
LeftLeg  1.67709 0.460988 -0.155466
LeftFoot  0.770888 -0.0439453 0.37314
LeftToes  -1.63346e-009 7.54925e-011 9.86887e-012
8
root  71.7036 39.4509 -1.47443 -155.784 -81.1198 153.281
RightUpLeg  1.54607 -8.71729 -4.71426
RightLeg  9.11477 0.410337 -0.0117017
RightFoot  -8.88697 -0.0285644 -1.46799
RightToes  -1.33073e-015 0 -3.6325e-017
Spine  3.36644 1.49179 5.50727
Spine1  3.73212 2.98163 -5.84333
HEad  -13.649 -4.69767 -2.3231
LeftShoulder1  -0.692086 5.32341 -31.9244
LeftArm  0.751484 10.1945 -41.7814
LeftForeArm  25.69 -15.4543 -6.43181
LeftHand  -0.025729 8.4618 0.72597
RightShoulder  -0.988689 -6.07308 31.8815
RightArm  21.2835 3.65862 46.4708
RightForeArm  18.6873 8.91416 9.13726
RightHand  -0.0882381 3.51816 -1.3952
LeftUpLeg  -1.0284 4.56544 -0.668766
LeftLeg  2.45943 0.710814 -0.258043
LeftFoot  0.198744 -0.0474458 0.452639
LeftToes  -1.63346e-009 7.54925e-011 9.86887e-012
